<svg width="13" height="20" viewBox="0 0 13 20" fill="none" xmlns="http://www.w3.org/2000/svg">
<path d="M1.1851 0.486909C0.884308 0.768201 0.715332 1.14966 0.715332 1.54741C0.715332 1.94516 0.884308 2.32662 1.1851 2.60791L9.12723 10.0329L1.1851 17.4579C0.892832 17.7408 0.73111 18.1197 0.734766 18.513C0.738421 18.9063 0.907162 19.2825 1.20464 19.5606C1.50213 19.8388 1.90455 19.9965 2.32523 19.9999C2.74592 20.0033 3.15121 19.8521 3.45382 19.5789L12.5303 11.0934C12.8311 10.8121 13.0001 10.4307 13.0001 10.0329C13.0001 9.63516 12.8311 9.2537 12.5303 8.97241L3.45382 0.486909C3.15294 0.205703 2.74491 0.0477295 2.31946 0.0477295C1.89401 0.0477295 1.48598 0.205703 1.1851 0.486909Z" fill="#3448FB"/>
</svg>
