<svg width="24" height="24" viewBox="0 0 24 24" fill="none" xmlns="http://www.w3.org/2000/svg">
<path opacity="0.4" d="M12 22C17.523 22 22 17.523 22 12C22 6.477 17.523 2 12 2C6.477 2 2 6.477 2 12C2 17.523 6.477 22 12 22Z" fill="#4150DC"/>
<path d="M12.202 17.382C11.4744 17.382 10.7764 17.0936 10.261 16.5801C9.74554 16.0665 9.45464 15.3696 9.452 14.642C9.452 13.912 9.742 13.212 10.262 12.702L11.672 11.292C11.962 11.002 12.442 11.002 12.732 11.292C13.022 11.582 13.022 12.062 12.732 12.352L11.322 13.762C11.2052 13.8768 11.1124 14.0138 11.049 14.1649C10.9857 14.316 10.9531 14.4782 10.9531 14.642C10.9531 14.8058 10.9857 14.968 11.049 15.1191C11.1124 15.2702 11.2052 15.4071 11.322 15.522C11.812 16.012 12.602 16.012 13.092 15.522L15.312 13.302C15.9082 12.6892 16.2391 11.8662 16.2332 11.0113C16.2273 10.1563 15.8851 9.33804 15.2805 8.73347C14.676 8.12891 13.8577 7.78666 13.0027 7.78077C12.1478 7.77488 11.3248 8.10582 10.712 8.702L8.292 11.122C8.04189 11.3691 7.84333 11.6634 7.7078 11.9879C7.57228 12.3123 7.5025 12.6604 7.5025 13.012C7.5025 13.3636 7.57228 13.7117 7.7078 14.0361C7.84333 14.3606 8.04189 14.6549 8.292 14.902C8.582 15.192 8.582 15.672 8.292 15.962C8.002 16.252 7.522 16.252 7.232 15.962C6.84282 15.5739 6.53457 15.1125 6.32515 14.6043C6.11572 14.0962 6.00928 13.5516 6.012 13.002C6.012 11.882 6.442 10.832 7.232 10.042L9.652 7.622C10.5445 6.73337 11.7526 6.23447 13.012 6.23447C14.2714 6.23447 15.4795 6.73337 16.372 7.622C17.2606 8.51445 17.7595 9.72258 17.7595 10.982C17.7595 12.2414 17.2606 13.4495 16.372 14.342L14.152 16.562C13.612 17.112 12.912 17.382 12.202 17.382Z" fill="#4150DC"/>
</svg>
