<svg width="48" height="64" viewBox="0 0 48 64" fill="none" xmlns="http://www.w3.org/2000/svg">
<path d="M40 0H8C5.87827 0 3.84344 0.842855 2.34315 2.34315C0.842854 3.84344 0 5.87827 0 8V56C0 58.1217 0.842854 60.1566 2.34315 61.6569C3.84344 63.1571 5.87827 64 8 64H40C42.1217 64 44.1566 63.1571 45.6569 61.6569C47.1571 60.1566 48 58.1217 48 56V8C48 5.87827 47.1571 3.84344 45.6569 2.34315C44.1566 0.842855 42.1217 0 40 0ZM12 16H36C36.5304 16 37.0391 16.2107 37.4142 16.5858C37.7893 16.9609 38 17.4696 38 18C38 18.5304 37.7893 19.0391 37.4142 19.4142C37.0391 19.7893 36.5304 20 36 20H12C11.4696 20 10.9609 19.7893 10.5858 19.4142C10.2107 19.0391 10 18.5304 10 18C10 17.4696 10.2107 16.9609 10.5858 16.5858C10.9609 16.2107 11.4696 16 12 16ZM10 26C10 25.4696 10.2107 24.9609 10.5858 24.5858C10.9609 24.2107 11.4696 24 12 24H36C36.5304 24 37.0391 24.2107 37.4142 24.5858C37.7893 24.9609 38 25.4696 38 26C38 26.5304 37.7893 27.0391 37.4142 27.4142C37.0391 27.7893 36.5304 28 36 28H12C11.4696 28 10.9609 27.7893 10.5858 27.4142C10.2107 27.0391 10 26.5304 10 26ZM12 32H36C36.5304 32 37.0391 32.2107 37.4142 32.5858C37.7893 32.9609 38 33.4696 38 34C38 34.5304 37.7893 35.0391 37.4142 35.4142C37.0391 35.7893 36.5304 36 36 36H12C11.4696 36 10.9609 35.7893 10.5858 35.4142C10.2107 35.0391 10 34.5304 10 34C10 33.4696 10.2107 32.9609 10.5858 32.5858C10.9609 32.2107 11.4696 32 12 32ZM12 40H24C24.5304 40 25.0391 40.2107 25.4142 40.5858C25.7893 40.9609 26 41.4696 26 42C26 42.5304 25.7893 43.0391 25.4142 43.4142C25.0391 43.7893 24.5304 44 24 44H12C11.4696 44 10.9609 43.7893 10.5858 43.4142C10.2107 43.0391 10 42.5304 10 42C10 41.4696 10.2107 40.9609 10.5858 40.5858C10.9609 40.2107 11.4696 40 12 40Z" fill="#4150DC"/>
</svg>
