<svg width="24" height="24" viewBox="0 0 24 24" fill="none" xmlns="http://www.w3.org/2000/svg">
<path opacity="0.4" d="M16.19 1H7.81C4.17 1 2 3.17 2 6.81V15.18C2 18.83 4.17 21 7.81 21H16.18C19.82 21 21.99 18.83 21.99 15.19V6.81C22 3.17 19.83 1 16.19 1Z" fill="#4150DC"/>
<path d="M12 15.881C12.5095 15.881 13.0141 15.7806 13.4848 15.5856C13.9556 15.3907 14.3833 15.1049 14.7436 14.7446C15.1039 14.3843 15.3897 13.9566 15.5847 13.4858C15.7796 13.0151 15.88 12.5105 15.88 12.001C15.88 11.4915 15.7796 10.9869 15.5847 10.5162C15.3897 10.0454 15.1039 9.61771 14.7436 9.25742C14.3833 8.89713 13.9556 8.61133 13.4848 8.41634C13.0141 8.22135 12.5095 8.121 12 8.121C10.971 8.121 9.98407 8.52978 9.25643 9.25742C8.52879 9.98506 8.12 10.972 8.12 12.001C8.12 13.03 8.52879 14.0169 9.25643 14.7446C9.98407 15.4722 10.971 15.881 12 15.881ZM17 7.5C16.8683 7.50131 16.7377 7.47634 16.6158 7.42654C16.4939 7.37675 16.3831 7.30313 16.29 7.21C16.2 7.11 16.13 7 16.08 6.88C16.0286 6.75981 16.0015 6.63069 16 6.5C16 6.37 16.03 6.24 16.08 6.12C16.13 5.99 16.2 5.89 16.29 5.79C16.52 5.56 16.87 5.45 17.19 5.52C17.26 5.53 17.32 5.55 17.38 5.58C17.44 5.6 17.5 5.63 17.56 5.67C17.61 5.7 17.66 5.75 17.71 5.79C17.8 5.89 17.87 5.99 17.92 6.12C17.97 6.24 18 6.37 18 6.5C18 6.63 17.97 6.76 17.92 6.88C17.87 7 17.8 7.11 17.71 7.21C17.61 7.3 17.5 7.37 17.38 7.42C17.26 7.47 17.13 7.5 17 7.5Z" fill="#4150DC"/>
</svg>
