<svg width="24" height="24" viewBox="0 0 24 24" fill="none" xmlns="http://www.w3.org/2000/svg">
<path opacity="0.4" d="M12.002 21.93C6.962 21.93 2.85201 17.83 2.85201 12.78V10.9C2.85201 10.51 3.17201 10.2 3.55201 10.2C3.93201 10.2 4.252 10.52 4.252 10.9V12.78C4.252 17.05 7.722 20.52 11.992 20.52C16.262 20.52 19.732 17.05 19.732 12.78V10.9C19.732 10.51 20.052 10.2 20.432 10.2C20.812 10.2 21.132 10.52 21.132 10.9V12.78C21.152 17.83 17.042 21.93 12.002 21.93Z" fill="#4150DC"/>
<path d="M11.998 2C8.638 2 5.89799 4.74 5.89799 8.1V12.79C5.89799 16.15 8.638 18.89 11.998 18.89C15.358 18.89 18.098 16.15 18.098 12.79V8.1C18.098 4.74 15.358 2 11.998 2ZM14.178 10.59C14.1571 10.6676 14.1212 10.7403 14.0721 10.8039C14.0231 10.8675 13.962 10.9208 13.8923 10.9608C13.8226 11.0008 13.7457 11.0266 13.6661 11.0367C13.5864 11.0469 13.5055 11.0412 13.428 11.02C12.4068 10.74 11.3292 10.74 10.308 11.02C9.97799 11.11 9.64799 10.92 9.55799 10.59C9.5368 10.5125 9.53112 10.4316 9.54128 10.3519C9.55144 10.2723 9.57724 10.1954 9.61719 10.1257C9.65715 10.056 9.71047 9.99488 9.7741 9.94585C9.83773 9.89683 9.91042 9.86086 9.988 9.84C11.218 9.5 12.518 9.5 13.748 9.84C14.078 9.93 14.268 10.26 14.178 10.59ZM15.028 7.82C15.0013 7.89546 14.9597 7.96481 14.9057 8.02396C14.8518 8.0831 14.7866 8.13086 14.7139 8.16441C14.6412 8.19795 14.5625 8.21662 14.4825 8.2193C14.4025 8.22197 14.3228 8.20861 14.248 8.18C12.7176 7.62002 11.0384 7.62002 9.508 8.18C9.43253 8.20877 9.35211 8.22226 9.27138 8.2197C9.19066 8.21715 9.11125 8.19858 9.03776 8.16509C8.96427 8.1316 8.89816 8.08385 8.84327 8.02461C8.78838 7.96537 8.7458 7.89583 8.718 7.82C8.608 7.51 8.768 7.16 9.088 7.04C10.888 6.39 12.868 6.39 14.658 7.04C14.978 7.16 15.138 7.51 15.028 7.82Z" fill="#4150DC"/>
</svg>
