<svg width="25" height="25" viewBox="0 0 25 25" fill="none" xmlns="http://www.w3.org/2000/svg">
<path opacity="0.4" d="M23.6842 10.2375H19.8816C16.7632 10.2375 14.2237 7.825 14.2237 4.8625V1.25C14.2237 0.5625 13.6316 0 12.9079 0H7.32895C3.27632 0 0 2.5 0 6.9625V18.0375C0 22.5 3.27632 25 7.32895 25H17.6711C21.7237 25 25 22.5 25 18.0375V11.4875C25 10.8 24.4079 10.2375 23.6842 10.2375Z" fill="#4150DC"/>
<path d="M17.5 0.262491C16.9605 -0.250009 16.0263 0.0999914 16.0263 0.812491V5.17499C16.0263 6.99999 17.6579 8.51249 19.6447 8.51249C20.8947 8.52499 22.6316 8.52499 24.1184 8.52499C24.8684 8.52499 25.2631 7.68749 24.7368 7.18749C22.8421 5.37499 19.4473 2.11249 17.5 0.262491ZM12.8684 15.9C12.6827 15.7256 12.4321 15.6279 12.171 15.6279C11.9099 15.6279 11.6594 15.7256 11.4737 15.9L10.5263 16.8V11.5625C10.5263 11.05 10.0789 10.625 9.53945 10.625C8.99997 10.625 8.55261 11.05 8.55261 11.5625V16.8L7.60524 15.9C7.41953 15.7256 7.16896 15.6279 6.90787 15.6279C6.64678 15.6279 6.39621 15.7256 6.2105 15.9C5.82892 16.2625 5.82892 16.8625 6.2105 17.225L8.84208 19.725C8.85524 19.7375 8.8684 19.7375 8.8684 19.75C8.94734 19.825 9.05261 19.8875 9.15787 19.9375C9.28945 19.975 9.40787 20 9.53945 20C9.67103 20 9.78945 19.975 9.90787 19.925C10.0263 19.875 10.1316 19.8125 10.2368 19.725L12.8684 17.225C13.25 16.8625 13.25 16.2625 12.8684 15.9Z" fill="#4150DC"/>
</svg>
