<svg width="25" height="25" viewBox="0 0 25 25" fill="none" xmlns="http://www.w3.org/2000/svg">
<path d="M16.2492 0.232117C15.7507 -0.256284 14.8873 0.0772584 14.8873 0.756255V4.91362C14.8873 6.6528 16.3952 8.09418 18.2314 8.09418C19.3866 8.10609 20.9917 8.10609 22.3658 8.10609C23.059 8.10609 23.4238 7.30797 22.9374 6.83149C21.1863 5.10421 18.0489 1.99513 16.2492 0.232117ZM14.9846 20.5448C12.1269 20.7473 12.1269 24.7975 14.9846 25H21.7457C22.5604 25 23.363 24.7022 23.9588 24.1661C25.9653 22.4508 24.8952 19.0201 22.2564 18.6984C21.3079 13.1116 13.0632 15.232 15.0089 20.5567" fill="#4150DC"/>
<path opacity="0.4" d="M21.8885 9.75611H18.3742C15.4922 9.75611 13.1453 7.45705 13.1453 4.63385V1.19122C13.1453 0.53605 12.5981 0 11.9292 0H6.77328C3.02791 0 0 2.38244 0 6.63511V17.1893C0 21.442 3.02791 23.8244 6.77328 23.8244H16.3313C20.0766 23.8244 23.1045 21.442 23.1045 17.1893V10.9473C23.1045 10.2922 22.5573 9.75611 21.8885 9.75611Z" fill="#4150DC"/>
</svg>
