<svg width="30" height="30" viewBox="0 0 30 30" fill="none" xmlns="http://www.w3.org/2000/svg">
<path opacity="0.4" d="M21.9125 9.7125C21.8254 9.7 21.737 9.7 21.65 9.7125C20.7164 9.68195 19.8314 9.28899 19.1827 8.61693C18.534 7.94488 18.1725 7.04657 18.175 6.1125C18.175 4.125 19.7875 2.5 21.7875 2.5C23.775 2.5 25.4 4.1125 25.4 6.1125C25.3973 7.04716 25.0325 7.94441 24.3822 8.61572C23.7318 9.28704 22.8466 9.68016 21.9125 9.7125ZM25.99 18.375C24.59 19.3125 22.6275 19.6625 20.815 19.425C21.29 18.4 21.54 17.2625 21.5525 16.0625C21.5525 14.8125 21.2775 13.625 20.7525 12.5875C22.6025 12.3375 24.565 12.6875 25.9775 13.625C27.9525 14.925 27.9525 17.0625 25.99 18.375ZM8.0475 9.7125C8.135 9.7 8.2225 9.7 8.31 9.7125C9.24357 9.68195 10.1285 9.28899 10.7773 8.61693C11.426 7.94488 11.7874 7.04657 11.785 6.1125C11.785 4.125 10.1725 2.5 8.1725 2.5C6.185 2.5 4.56 4.1125 4.56 6.1125C4.56267 7.04716 4.9275 7.94441 5.57784 8.61572C6.22817 9.28704 7.11339 9.68016 8.0475 9.7125ZM8.18875 16.0625C8.18875 17.275 8.45125 18.425 8.92625 19.4625C7.16374 19.65 5.32625 19.275 3.97625 18.3875C2.00125 17.075 2.00125 14.9375 3.97625 13.625C5.31375 12.725 7.20125 12.3625 8.97625 12.5625C8.46375 13.6125 8.18875 14.8 8.18875 16.0625Z" fill="#4150DC"/>
<path d="M15.15 19.8375C15.042 19.825 14.933 19.825 14.825 19.8375C13.7136 19.8002 12.6603 19.3318 11.888 18.5316C11.1158 17.7314 10.6852 16.6621 10.6875 15.55C10.6875 13.175 12.6 11.25 14.9875 11.25C17.3625 11.25 19.2875 13.175 19.2875 15.55C19.2875 17.875 17.4625 19.7625 15.15 19.8375ZM11.0875 22.425C9.2 23.6875 9.2 25.7625 11.0875 27.0125C13.2375 28.45 16.7625 28.45 18.9125 27.0125C20.8 25.75 20.8 23.675 18.9125 22.425C16.775 20.9875 13.25 20.9875 11.0875 22.425Z" fill="#4150DC"/>
</svg>
