<svg width="24" height="24" viewBox="0 0 24 24" fill="none" xmlns="http://www.w3.org/2000/svg">
<path opacity="0.4" d="M2 12.881V11.121C2 10.081 2.85 9.221 3.9 9.221C5.71 9.221 6.45 7.941 5.54 6.371C5.02 5.471 5.33 4.301 6.24 3.781L7.97 2.791C8.76 2.321 9.78 2.601 10.25 3.391L10.36 3.581C11.26 5.151 12.74 5.151 13.65 3.581L13.76 3.391C14.23 2.601 15.25 2.321 16.04 2.791L17.77 3.781C18.68 4.301 18.99 5.471 18.47 6.371C17.56 7.941 18.3 9.221 20.11 9.221C21.15 9.221 22.01 10.071 22.01 11.121V12.881C22.01 13.921 21.16 14.781 20.11 14.781C18.3 14.781 17.56 16.061 18.47 17.631C18.99 18.541 18.68 19.701 17.77 20.221L16.04 21.211C15.25 21.681 14.23 21.401 13.76 20.611L13.65 20.421C12.75 18.851 11.27 18.851 10.36 20.421L10.25 20.611C9.78 21.401 8.76 21.681 7.97 21.211L6.24 20.221C5.8041 19.97 5.48558 19.5563 5.35435 19.0708C5.22311 18.5852 5.28988 18.0674 5.54 17.631C6.45 16.061 5.71 14.781 3.9 14.781C2.85 14.781 2 13.921 2 12.881Z" fill="#4150DC"/>
<path d="M12 15.25C12.862 15.25 13.6886 14.9076 14.2981 14.2981C14.9076 13.6886 15.25 12.862 15.25 12C15.25 11.138 14.9076 10.3114 14.2981 9.7019C13.6886 9.09241 12.862 8.75 12 8.75C11.138 8.75 10.3114 9.09241 9.7019 9.7019C9.09241 10.3114 8.75 11.138 8.75 12C8.75 12.862 9.09241 13.6886 9.7019 14.2981C10.3114 14.9076 11.138 15.25 12 15.25Z" fill="#4150DC"/>
</svg>
